<?xml version="1.0" encoding="UTF-8"?>
<svg id="Layer_1" data-name="Layer 1" xmlns="http://www.w3.org/2000/svg" xmlns:xlink="http://www.w3.org/1999/xlink" viewBox="0 0 150 65">
  <defs>
    <style>
      .cls-1 {
        fill: url(#linear-gradient-2);
      }

      .cls-2 {
        fill: #fff;
      }

      .cls-3 {
        fill: url(#linear-gradient-4);
      }

      .cls-4 {
        fill: url(#linear-gradient-3);
      }

      .cls-5 {
        clip-path: url(#clippath-1);
      }

      .cls-6 {
        clip-path: url(#clippath-3);
      }

      .cls-7 {
        clip-rule: evenodd;
        fill: none;
      }

      .cls-8 {
        clip-path: url(#clippath-2);
      }

      .cls-9 {
        fill: url(#linear-gradient);
      }

      .cls-10 {
        clip-path: url(#clippath);
      }
    </style>
    <clipPath id="clippath">
      <path class="cls-7" d="M16.93,54.54c-9.09-.51-15.58-3.3-16.75-7.98-.67-2.72.54-5.71,3.2-8.67-.91,1.71-1.22,3.4-.82,4.98.94,3.78,5.71,6.21,12.57,7.03h0c5.89.54,14.07.09,21.78-1.74.2-.05.4-.1.6-.14.19-.05.38-.1.57-.14,7.7-1.99,15.27-5.47,20.25-8.78h0c5.58-3.9,8.59-8.23,7.66-11.98-.39-1.58-1.45-2.92-3.06-4.01,3.74,1.37,6.21,3.45,6.89,6.16,1.77,7.11-9.06,13.95-14.6,16.99,0,0,0,0,0,0l-.12.21-.09.07c-2.01,2.75-14.53,13.62-19.98,18.47-3.7-3.35-7.52-7.22-11.47-10.24,0-.01,0-.03,0-.04-2.21.05-4.43,0-6.64-.18h0Z"/>
    </clipPath>
    <linearGradient id="linear-gradient" x1="38.35" y1="46.55" x2="45.95" y2="53.33" gradientUnits="userSpaceOnUse">
      <stop offset="0" stop-color="#937ffa"/>
      <stop offset="1" stop-color="#c2a4fb"/>
    </linearGradient>
    <clipPath id="clippath-1">
      <path class="cls-7" d="M14.86,47.05v.04c-.1-.02-.21-.03-.32-.05-2.63-.39-8.52-1.69-9.3-4.84-.08-.33-.1-.67-.07-1.01,1.27,2.09,4.13,3.36,8.55,3.8-3.16-5.29-5.7-21.59,3.62-26.56,5.65-3.01,15.91,1.33,20.53,4.39-1.39,1.7-4.74,4.77-10.73,7.7,9.54-1.54,12-7.73,18.98-10.67,3.31-1.39,6.19-1.18,8.66.65,3.4,2.52,4.23,5.9,4.38,10.17.02.67.02,1.36,0,2.07,2.44-1.94,3.66-3.96,3.66-6.05.23.33.42.68.51,1.08.65,2.61-2.39,5.73-4.67,7.62v-.03c-.5.41-1.06.87-1.29,1.04-5.81,4.27-13.56,7.21-20.51,8.93-6.51,1.62-15.1,2.47-21.99,1.71"/>
    </clipPath>
    <linearGradient id="linear-gradient-2" x1="37.5" y1="36.68" x2="23.54" y2="12.69" gradientUnits="userSpaceOnUse">
      <stop offset="0" stop-color="#f26db9"/>
      <stop offset="1" stop-color="#fe949a"/>
    </linearGradient>
    <clipPath id="clippath-2">
      <path class="cls-7" d="M22.18,0c4.01,0,7.26,3.25,7.26,7.26s-3.25,7.26-7.26,7.26-7.26-3.25-7.26-7.26S18.17,0,22.18,0"/>
    </clipPath>
    <linearGradient id="linear-gradient-3" x1="14.92" y1="15.47" x2="50.07" y2="-24.25" gradientUnits="userSpaceOnUse">
      <stop offset="0" stop-color="#f26db9"/>
      <stop offset="1" stop-color="#937ffa"/>
    </linearGradient>
    <clipPath id="clippath-3">
      <path class="cls-7" d="M48.89,1.71c3.54,0,6.41,2.87,6.41,6.41s-2.87,6.41-6.41,6.41-6.41-2.87-6.41-6.41,2.87-6.41,6.41-6.41"/>
    </clipPath>
    <linearGradient id="linear-gradient-4" x1="30.32" y1="29.1" x2="65.47" y2="-10.62" xlink:href="#linear-gradient-3"/>
  </defs>
  <g>
    <g class="cls-10">
      <rect class="cls-9" x="-.49" y="23.1" width="72.08" height="41.9"/>
    </g>
    <g class="cls-5">
      <rect class="cls-1" x="5.14" y="15.41" width="58.83" height="32.39"/>
    </g>
    <g class="cls-8">
      <rect class="cls-4" x="14.92" width="14.53" height="14.53"/>
    </g>
    <g class="cls-6">
      <rect class="cls-3" x="42.48" y="1.71" width="12.81" height="12.81"/>
    </g>
  </g>
  <g>
    <path class="cls-2" d="M74.57,35.08v-.37l.75-.24c.05-.02.1-.04.13-.08.04-.04.05-.09.05-.16v-5.32c0-.07-.02-.12-.05-.16s-.08-.06-.13-.08l-.75-.25v-.36h3.21c.28,0,.58.03.9.1.32.07.63.18.94.33.31.16.59.37.84.64.25.27.45.61.61,1.01.15.4.23.89.23,1.45,0,.8-.16,1.45-.48,1.97-.32.51-.74.89-1.28,1.14s-1.13.37-1.78.37h-3.19ZM76.54,28.66v5.84h1.25c.82,0,1.42-.24,1.8-.72.38-.48.57-1.15.57-2.02,0-.64-.11-1.19-.33-1.65s-.53-.82-.93-1.07c-.4-.25-.87-.38-1.41-.38h-.94Z"/>
    <path class="cls-2" d="M83.86,35.18c-.32,0-.59-.07-.81-.21-.23-.14-.4-.32-.52-.54-.12-.22-.18-.46-.18-.72,0-.33.08-.62.25-.85s.38-.41.64-.55.54-.24.83-.3c.29-.06.56-.09.81-.09.05,0,.13,0,.24.01.11,0,.22.02.33.03.11.01.19.02.23.03v-.72c0-.37-.08-.62-.27-.76-.18-.14-.42-.21-.71-.21-.17,0-.33.03-.5.09-.17.06-.33.13-.48.21-.15.09-.29.17-.42.26-.13.09-.24.16-.33.22h-.2l-.03-.95c.19-.07.38-.14.58-.21s.41-.12.65-.17c.23-.04.5-.07.79-.07.32,0,.62.05.91.14s.53.26.71.5c.19.24.28.59.27,1.04v2.71c0,.12.04.22.13.29.1.08.2.12.32.12.06,0,.14-.02.23-.05.09-.03.17-.07.25-.1h.08v.41c-.06.04-.15.1-.27.17-.12.07-.24.13-.37.18-.13.05-.25.08-.35.08-.31,0-.54-.07-.69-.21-.15-.14-.23-.37-.23-.68h-.06c-.18.25-.38.45-.6.57-.22.13-.44.21-.65.25-.21.04-.41.06-.58.06ZM84.34,34.48c.21,0,.45-.04.72-.13.27-.09.47-.23.61-.43v-1.48c-.45,0-.85.03-1.19.08-.34.06-.61.16-.8.32s-.29.39-.29.69c0,.24.05.44.15.57s.22.23.37.29c.15.05.29.08.43.08Z"/>
    <path class="cls-2" d="M91.68,29.83l-.03.56h-1.82v3.42c0,.15.06.28.18.37.12.09.25.16.41.2.15.04.29.06.39.06.11,0,.25-.02.4-.06s.26-.07.33-.11h.17v.4c-.06.04-.17.1-.32.18-.15.08-.33.15-.53.22s-.39.1-.59.1c-.25,0-.48-.04-.7-.12-.21-.08-.39-.2-.52-.36-.13-.15-.2-.34-.2-.56v-3.74h-.85v-.45c.19-.03.35-.06.48-.09s.25-.1.33-.2c.08-.1.13-.26.14-.49l.05-.72.83-.16v1.55h1.86Z"/>
    <path class="cls-2" d="M92.34,35.08v-.36l.74-.2c.06-.02.11-.04.14-.08s.06-.09.06-.16v-3.41c0-.07-.02-.13-.06-.16s-.09-.07-.16-.09l-.71-.24v-.35l1.91-.26v4.52c0,.07.02.12.06.16.04.04.08.07.13.08l.73.2v.36h-2.84ZM93.68,28.79c-.12,0-.24-.03-.35-.08-.11-.05-.19-.12-.26-.22-.06-.1-.1-.21-.1-.34,0-.21.07-.37.21-.48.14-.11.3-.17.49-.17.22,0,.4.05.53.16.14.1.2.26.2.45,0,.14-.03.26-.09.36-.06.1-.15.18-.26.23-.11.05-.24.08-.38.08Z"/>
    <path class="cls-2" d="M95.92,35.08v-.36l.6-.2c.06-.02.11-.04.14-.08.04-.04.05-.09.05-.16v-3.45c0-.07-.02-.13-.06-.16-.04-.04-.09-.07-.16-.1l-.57-.24v-.35l1.67-.27v.84h.06c.2-.25.39-.44.58-.57.19-.12.38-.21.57-.25.19-.04.38-.06.56-.06.31,0,.59.06.85.18s.46.31.61.57c.15.26.23.6.23,1.02v2.81c0,.08.02.14.06.18.04.04.08.07.14.08l.53.2v.36h-2.4v-.36l.5-.2c.06-.02.11-.05.15-.09.04-.04.06-.09.06-.17v-2.39c0-.31-.03-.57-.08-.79-.06-.22-.17-.38-.33-.5-.16-.11-.41-.17-.73-.17-.21,0-.44.04-.67.11s-.43.2-.59.4v3.36c0,.07.02.12.06.16.04.04.09.06.14.08l.46.2v.36h-2.42Z"/>
    <path class="cls-2" d="M104.92,33.25c-.2,0-.38-.02-.56-.05-.18-.04-.31-.07-.4-.11-.08.03-.16.09-.23.18-.08.1-.11.21-.11.36,0,.12.04.24.12.34.08.1.17.17.27.2h1.83c.45,0,.81.07,1.07.2.26.13.45.3.56.51s.17.41.17.62c0,.39-.12.73-.37,1.03-.25.3-.58.54-1,.71-.42.17-.89.25-1.41.25-.44,0-.84-.05-1.2-.15-.35-.1-.63-.25-.84-.45-.2-.2-.31-.44-.31-.72,0-.33.11-.6.33-.79s.47-.33.76-.4v-.06c-.11-.04-.23-.09-.35-.17-.12-.08-.22-.18-.3-.3-.08-.12-.12-.27-.12-.45,0-.21.05-.38.14-.52.09-.14.21-.25.35-.34.14-.09.28-.14.42-.17v-.05c-.12-.07-.25-.17-.38-.29-.13-.12-.25-.27-.34-.45-.09-.18-.14-.4-.14-.66,0-.35.09-.66.26-.94.17-.27.41-.49.73-.65.31-.16.68-.23,1.11-.23.23,0,.44.01.62.04.19.03.37.06.54.1h1.73l-.03.62-1.25-.08v.04c.13.16.24.32.32.48.08.16.12.37.12.63,0,.5-.18.91-.55,1.24-.37.33-.89.5-1.55.5ZM105.08,36.94c.28,0,.55-.04.81-.11.26-.07.48-.19.65-.36s.26-.39.26-.67c0-.18-.08-.36-.24-.54s-.43-.27-.79-.27h-1.69c-.13.04-.26.13-.39.27-.13.15-.2.36-.2.63,0,.21.05.38.16.51.11.14.25.24.42.32.17.08.35.13.53.16.18.03.35.05.49.05ZM104.93,32.8c.23,0,.43-.05.6-.15.16-.1.29-.25.37-.45.09-.2.13-.45.13-.76,0-.44-.1-.76-.3-.98s-.46-.32-.79-.32c-.19,0-.36.04-.51.13s-.28.23-.38.42c-.1.19-.14.44-.14.75,0,.46.1.8.29,1.02.19.22.44.34.75.34Z"/>
    <path class="cls-2" d="M108.71,35.08v-.37l.75-.24c.05-.02.1-.04.13-.08.04-.04.05-.09.05-.16v-5.32c0-.07-.02-.12-.05-.16s-.08-.06-.13-.08l-.75-.25v-.36h3.21c.28,0,.58.03.9.1.32.07.63.18.94.33.31.16.59.37.84.64.25.27.45.61.61,1.01.15.4.23.89.23,1.45,0,.8-.16,1.45-.48,1.97-.32.51-.74.89-1.28,1.14s-1.13.37-1.78.37h-3.19ZM110.68,28.66v5.84h1.25c.82,0,1.42-.24,1.8-.72.38-.48.57-1.15.57-2.02,0-.64-.11-1.19-.33-1.65s-.53-.82-.93-1.07c-.4-.25-.87-.38-1.41-.38h-.94Z"/>
    <path class="cls-2" d="M116.37,37.36l.03-1.01h.23s.1.05.17.07c.07.03.14.05.22.07.08.02.15.04.21.05.06.01.12.02.15.02.15,0,.27-.01.37-.04s.19-.06.27-.13c.08-.06.16-.15.23-.27.07-.11.15-.27.23-.46.08-.19.17-.44.29-.74l-.34-.58-1.67-3.79c-.03-.06-.06-.11-.11-.14-.04-.03-.09-.06-.15-.09l-.38-.18v-.35h2.33v.35l-.72.24,1.22,2.74.23.61h.08l1.21-3.21-.67-.39v-.35h1.96v.35l-.43.29s-.09.07-.15.1c-.05.03-.09.08-.11.13l-2,5.24c-.16.42-.34.74-.54.97s-.41.38-.63.46c-.22.08-.46.13-.71.13-.06,0-.15,0-.25-.02-.11-.01-.21-.03-.32-.05-.11-.02-.19-.04-.25-.06Z"/>
    <path class="cls-2" d="M122.35,35.08v-.36l.6-.2c.06-.02.11-.04.14-.08.04-.04.05-.09.05-.16v-3.45c0-.07-.02-.13-.06-.16-.04-.04-.09-.07-.16-.1l-.57-.24v-.35l1.67-.27v.84h.06c.2-.25.39-.44.58-.57.19-.12.38-.21.57-.25.19-.04.38-.06.56-.06.31,0,.59.06.85.18s.46.31.61.57c.15.26.23.6.23,1.02v2.81c0,.08.02.14.06.18.04.04.08.07.14.08l.53.2v.36h-2.4v-.36l.5-.2c.06-.02.11-.05.15-.09.04-.04.06-.09.06-.17v-2.39c0-.31-.03-.57-.08-.79-.06-.22-.17-.38-.33-.5-.16-.11-.41-.17-.73-.17-.21,0-.44.04-.67.11s-.43.2-.59.4v3.36c0,.07.02.12.06.16.04.04.09.06.14.08l.46.2v.36h-2.42Z"/>
    <path class="cls-2" d="M130.62,35.18c-.32,0-.59-.07-.81-.21-.23-.14-.4-.32-.52-.54-.12-.22-.18-.46-.18-.72,0-.33.08-.62.25-.85s.38-.41.64-.55.54-.24.83-.3c.29-.06.56-.09.81-.09.05,0,.13,0,.24.01.11,0,.22.02.33.03.11.01.19.02.23.03v-.72c0-.37-.08-.62-.27-.76-.18-.14-.42-.21-.71-.21-.17,0-.33.03-.5.09-.17.06-.33.13-.48.21-.15.09-.29.17-.42.26-.13.09-.24.16-.33.22h-.2l-.03-.95c.19-.07.38-.14.58-.21s.41-.12.65-.17c.23-.04.5-.07.79-.07.32,0,.62.05.91.14s.53.26.71.5c.19.24.28.59.27,1.04v2.71c0,.12.04.22.13.29.1.08.2.12.32.12.06,0,.14-.02.23-.05.09-.03.17-.07.25-.1h.08v.41c-.06.04-.15.1-.27.17-.12.07-.24.13-.37.18-.13.05-.25.08-.35.08-.31,0-.54-.07-.69-.21-.15-.14-.23-.37-.23-.68h-.06c-.18.25-.38.45-.6.57-.22.13-.44.21-.65.25-.21.04-.41.06-.58.06ZM131.1,34.48c.21,0,.45-.04.72-.13.27-.09.47-.23.61-.43v-1.48c-.45,0-.85.03-1.19.08-.34.06-.61.16-.8.32s-.29.39-.29.69c0,.24.05.44.15.57s.22.23.37.29c.15.05.29.08.43.08Z"/>
    <path class="cls-2" d="M138.34,35.08v-.36l.49-.19c.05-.02.1-.05.14-.09.04-.04.06-.09.06-.17v-2.4c0-.31-.03-.57-.08-.79-.05-.22-.16-.38-.31-.5-.16-.11-.39-.17-.7-.17-.21,0-.43.04-.66.11s-.42.2-.57.4v3.36c0,.07.02.12.06.15.04.03.08.06.14.08l.46.2v.36h-2.41v-.36l.6-.19c.05-.02.1-.04.13-.08s.06-.09.06-.16v-3.45c0-.07-.02-.13-.06-.16-.04-.04-.09-.07-.15-.09l-.58-.24v-.35l1.67-.27v.84h.06c.28-.38.57-.61.85-.72.28-.1.56-.16.83-.16.23,0,.44.03.65.1.2.07.38.17.54.33.16.15.28.36.36.62l.09.07v3.48c0,.08.02.13.06.17.04.03.08.06.14.09l.45.2v.36h-2.3ZM141.62,35.08v-.36l.5-.19c.05-.02.1-.05.14-.09.04-.04.06-.09.06-.17v-2.4c0-.31-.03-.57-.08-.79-.05-.22-.16-.38-.32-.5-.16-.11-.39-.17-.7-.17-.2,0-.43.04-.67.12s-.44.23-.59.46l-.13-.23c.25-.35.48-.6.69-.75.21-.15.41-.25.6-.29s.37-.06.54-.06c.3,0,.57.06.82.18.25.12.45.31.6.57.15.26.22.6.22,1.02v2.82c0,.08.02.13.06.17.04.04.08.06.14.08l.53.2v.36h-2.4Z"/>
    <path class="cls-2" d="M147.41,35.2c-.51,0-.95-.11-1.33-.33-.38-.22-.68-.54-.89-.95s-.32-.9-.32-1.47c0-.53.1-1,.32-1.41.21-.42.51-.75.9-.99.39-.25.85-.37,1.38-.37.58,0,1.05.13,1.43.38s.65.59.84,1.01c.18.42.28.87.28,1.36,0,.52-.1.98-.31,1.4-.21.42-.51.75-.89,1-.39.25-.85.37-1.38.37ZM147.48,34.67c.28,0,.52-.06.7-.2s.33-.3.44-.51c.11-.21.19-.44.23-.69.04-.25.07-.49.07-.73,0-.39-.05-.76-.15-1.12-.1-.35-.26-.64-.49-.87-.22-.22-.52-.34-.9-.34-.28,0-.51.06-.7.19-.19.13-.33.3-.44.51s-.19.44-.23.69c-.05.25-.07.49-.07.72,0,.26.03.53.08.81.05.27.13.53.25.76.12.23.28.42.47.56.2.14.44.21.74.21Z"/>
  </g>
</svg>