<?xml version="1.0" encoding="UTF-8"?>
<svg id="Layer_1" data-name="Layer 1" xmlns="http://www.w3.org/2000/svg" viewBox="0 0 150 60">
  <defs>
    <style>
      .cls-1 {
        font-family: ForteMT, Forte;
        font-size: 16px;
      }

      .cls-2 {
        fill: #f16d9d;
        fill-rule: evenodd;
      }
    </style>
  </defs>
  <path class="cls-2" d="M33.99,4.52c7.53-6.37,18.92-6.01,26.01,1.09,7.48,7.48,7.48,19.72,0,27.2l-2.77,2.77-.37,11.61-2.65-14.57,1.1,1.47c.4-1.42.61-2.92.61-4.47,0-9.18-7.44-16.62-16.62-16.62s-16.62,7.44-16.62,16.62,7.44,16.62,16.62,16.62c1.62,0,3.19-.23,4.67-.67l-1.3-.97,7.66,1.39,2.98.54-7.51.47-12.99,12.99L5.61,32.8C-1.87,25.33-1.87,13.09,5.61,5.61,12.45-1.23,23.26-1.81,30.78,3.85c1.52,1.14,3.27,3.66,3.61,4.94,0,0,.96-1.89-.41-4.26h0ZM25.3,9.34c-4.34-3.38-10.66-3.07-14.64.91-4.21,4.21-4.31,11.03-.29,15.37-2.05-4.42-1.25-9.87,2.38-13.5,3.38-3.38,8.32-4.3,12.55-2.77h0ZM30.33,26.63c1.65,0,2.99,1.34,2.99,2.99s-1.34,2.99-2.99,2.99-2.99-1.34-2.99-2.99,1.34-2.99,2.99-2.99h0ZM48.26,26.63c1.65,0,2.99,1.34,2.99,2.99s-1.34,2.99-2.99,2.99-2.99-1.34-2.99-2.99,1.34-2.99,2.99-2.99h0ZM39.29,26.63c1.65,0,2.99,1.34,2.99,2.99s-1.34,2.99-2.99,2.99-2.99-1.34-2.99-2.99,1.34-2.99,2.99-2.99h0Z"/>
  <text class="cls-1" transform="translate(58.76 50.2)"><tspan x="0" y="0">MatchMagic</tspan></text>
</svg>